<svg xmlns="http://www.w3.org/2000/svg" xmlns:xlink="http://www.w3.org/1999/xlink" width="220px" height="57px" viewBox="0 0 220 57" version="1.1"><script xmlns="" id="magic-eden-extension" data-extension-id="mkpegjkblkkefacfnmkajcjmabijhclg" data-prioritize-magic-eden="false"/><script xmlns=""/><script xmlns="" id="argent-x-extension" data-extension-id="dlcobpjiigpikoobohmabehhmhfoodbb"/>
    <title>Group 3</title>
    <g id="Symbols" stroke="none" stroke-width="1" fill="none" fill-rule="evenodd">
        <g id="Group-3" fill="#fff" transform="translate(0.000101, 0.000101)">
            <path d="M94.8782798,22.7329128 L104.548945,22.7329128 C105.402959,22.7329128 106.090459,21.9830963 105.985505,21.1091514 C105.897454,20.3759862 105.24906,19.8383486 104.510596,19.8383486 L92.4883028,19.8383486 C91.6923165,19.8383486 91.0411468,20.4895183 91.0411468,21.2857569 L91.0411468,35.7583257 C91.0411468,36.5545642 91.6923165,37.2057339 92.4883028,37.2057339 L104.548945,37.2057339 C105.402959,37.2057339 106.090459,36.4556651 105.985505,35.5817202 C105.897454,34.8488073 105.24906,34.3111697 104.510596,34.3111697 L94.8782798,34.3111697 C94.3575459,34.3111697 93.9354587,33.8890826 93.9354587,33.3683486 L93.9354587,30.9117661 C93.9354587,30.3912844 94.3575459,29.9691972 94.8782798,29.9691972 L102.136766,29.9691972 C102.99078,29.9691972 103.67828,29.2193807 103.573326,28.3456881 C103.485275,27.6122706 102.836881,27.074633 102.09867,27.074633 L94.8782798,27.074633 C94.3575459,27.074633 93.9354587,26.6527982 93.9354587,26.1320642 L93.9354587,23.6754817 C93.9354587,23.155 94.3575459,22.7329128 94.8782798,22.7329128 M78.2375,22.7329128 C79.8536927,22.7329128 81.2044725,23.3119266 82.3140596,24.4454817 C82.5794725,24.7108945 82.9412615,24.855711 83.3512385,24.855711 C84.1472248,24.855711 84.7986468,24.204289 84.7986468,23.4083028 C84.7986468,22.9983257 84.6056422,22.6123165 84.1954128,22.2505275 C82.482844,20.6343349 80.4808945,19.8383486 78.2375,19.8383486 C75.8495413,19.8383486 73.7991514,20.6827752 72.0865826,22.395344 C70.3982339,24.0836927 69.5540596,26.1340826 69.5540596,28.5220413 C69.5540596,30.91 70.3982339,32.9603899 72.0865826,34.6729587 C73.7991514,36.3613073 75.8495413,37.2057339 78.2375,37.2057339 C80.625711,37.2057339 82.6758486,36.3613073 84.3644495,34.6729587 C84.943211,34.093945 84.943211,33.1773624 84.3644495,32.6225688 C83.8094037,32.0438073 82.8930734,32.0438073 82.3140596,32.6225688 C81.1805046,33.7563761 79.8297248,34.3111697 78.2375,34.3111697 C76.6455275,34.3111697 75.2707798,33.7563761 74.1369725,32.6225688 C73.0031651,31.4890138 72.4486239,30.1140138 72.4486239,28.5220413 C72.4486239,26.9300688 73.0031651,25.579289 74.1369725,24.4454817 C75.2707798,23.3119266 76.6455275,22.7329128 78.2375,22.7329128 M125.399495,34.3111697 L115.768945,34.3111697 C115.247454,34.3111697 114.82461,33.8883257 114.82461,33.3668349 L114.82461,21.3236009 C114.82461,20.5851376 114.28672,19.9367431 113.553555,19.848945 C112.67961,19.7442431 111.930046,20.4317431 111.930046,21.2857569 L111.930046,35.7583257 C111.930046,36.5545642 112.581216,37.2057339 113.377454,37.2057339 L125.437844,37.2057339 C126.29211,37.2057339 126.97961,36.4556651 126.874656,35.5817202 C126.786353,34.8488073 126.137959,34.3111697 125.399495,34.3111697 M186.299128,19.8383486 L171.864656,19.8383486 C171.01039,19.8383486 170.323142,20.5884174 170.428096,21.4621101 C170.516147,22.1952752 171.164541,22.7329128 171.902752,22.7329128 L176.710963,22.7329128 C177.231445,22.7329128 177.653784,23.155 177.653784,23.6757339 L177.653784,35.7583257 C177.653784,36.6125917 178.403601,37.3000917 179.277798,37.1951376 C180.010711,37.1068349 180.548349,36.4584404 180.548349,35.7199771 L180.548349,23.6757339 C180.548349,23.155 180.970436,22.7329128 181.49117,22.7329128 L186.337225,22.7329128 C187.191491,22.7329128 187.878991,21.9830963 187.774289,21.1091514 C187.685986,20.3759862 187.037592,19.8383486 186.299128,19.8383486 M193.946904,19.8383486 C193.150917,19.8383486 192.499495,20.4895183 192.499495,21.2857569 L192.499495,35.7583257 C192.499495,36.5545642 193.150917,37.2057339 193.946904,37.2057339 C194.743142,37.2057339 195.394312,36.5545642 195.394312,35.7583257 L195.394312,21.2857569 C195.394312,20.4895183 194.743142,19.8383486 193.946904,19.8383486 M164.988647,28.3532569 C163.661835,27.5088303 161.87711,27.074633 159.633716,27.074633 C156.666995,27.074633 155.171399,26.351055 155.171399,24.9036468 C155.171399,23.4564908 156.666995,22.7329128 159.633716,22.7329128 C161.273876,22.7329128 162.841881,23.0465138 164.337477,23.6494954 C165.205619,23.9149083 165.808853,23.6013073 166.146422,22.757133 C166.435803,22.0093349 166.050046,21.2857569 165.25406,20.9239679 C163.589679,20.2001376 161.732294,19.8383486 159.633716,19.8383486 C157.438509,19.8383486 155.678005,20.2967661 154.303005,21.1891284 C152.952225,22.0817431 152.276835,23.3358945 152.276835,24.9036468 C152.276835,26.5682798 152.952225,27.8466514 154.279037,28.6908257 C155.605596,29.535 157.390573,29.9691972 159.633716,29.9691972 C162.600688,29.9691972 164.096284,30.6927752 164.096284,32.1401835 C164.096284,33.5873394 162.600688,34.3111697 159.633716,34.3111697 L158.910138,34.3111697 C157.414794,34.3111697 155.846789,33.9975688 154.230344,33.3943349 C153.48305,33.1291743 152.711032,33.4667431 152.397431,34.2629817 C152.107798,35.0107798 152.541995,35.878922 153.289794,36.1443349 C154.954427,36.8436927 156.81156,37.2057339 158.910138,37.2057339 L159.633716,37.2057339 C161.828922,37.2057339 163.589679,36.7473165 164.940459,35.8547018 C166.315459,34.9623394 166.990849,33.7079358 166.990849,32.1401835 C166.990849,30.4758028 166.315459,29.1974312 164.988647,28.3532569 M135.422867,22.7329128 L145.095803,22.7329128 C145.950069,22.7329128 146.637569,21.9830963 146.532615,21.1091514 C146.444564,20.3759862 145.79617,19.8383486 145.057706,19.8383486 L133.035413,19.8383486 C132.239174,19.8383486 131.588005,20.4895183 131.588005,21.2857569 L131.588005,35.7583257 C131.588005,36.5545642 132.239174,37.2057339 133.035413,37.2057339 L145.095803,37.2057339 C145.950069,37.2057339 146.637569,36.4556651 146.532615,35.5817202 C146.444312,34.8488073 145.79617,34.3111697 145.057706,34.3111697 L135.422867,34.3111697 C134.903647,34.3111697 134.482569,33.8900917 134.482569,33.3708716 L134.482569,30.9097477 C134.482569,30.3902752 134.903647,29.9691972 135.422867,29.9691972 L142.683876,29.9691972 C143.538142,29.9691972 144.225138,29.2193807 144.120436,28.3456881 C144.032385,27.6122706 143.383991,27.074633 142.645528,27.074633 L135.422867,27.074633 C134.903647,27.074633 134.482569,26.6538073 134.482569,26.1343349 L134.482569,23.673211 C134.482569,23.1537385 134.903647,22.7329128 135.422867,22.7329128 M53.7720872,28.8177294 C53.766789,28.9915596 53.5301376,29.0374771 53.4617661,28.8772706 C53.4325,28.8081422 53.4024771,28.7387615 53.3719495,28.6693807 C53.3161927,28.5424771 53.3318349,28.3948853 53.4150917,28.2838761 C53.4322477,28.2611697 53.4673165,28.2152523 53.5091972,28.1605046 C53.6217202,28.0134174 53.783945,28.035367 53.783945,28.1986009 C53.783945,28.4127982 53.7788991,28.5982339 53.7720872,28.8177294 M52.5267661,25.4168119 C52.3350229,25.7622018 51.8433028,25.7780963 51.630367,25.4450688 C51.5973165,25.3936009 51.5640138,25.342133 51.5304587,25.2904128 C50.7629817,24.1119495 49.8797018,22.9551835 48.8932339,21.8309633 C48.6510321,21.5549541 48.8490826,21.1217661 49.216422,21.1215138 L49.2252523,21.1215138 C51.5304587,21.1215138 52.738945,21.6909404 53.1077982,22.3862615 C53.4155963,22.9677982 53.3212385,23.9847936 52.5267661,25.4168119 M52.0115826,37.4719037 C51.8879587,37.7865138 51.7585321,38.0991055 51.6225459,38.4086697 C51.6013532,38.4513073 51.581422,38.4944495 51.5594725,38.5368349 C50.7110092,40.1699312 49.2873165,41.4558716 47.3847706,42.3507569 C46.9578899,42.5513303 46.4908945,42.1607798 46.6180505,41.7066514 C47.2497936,39.4455963 47.7278899,36.993555 48.0377064,34.4229358 C48.0954817,33.943578 48.3318807,33.503578 48.6972018,33.1877064 C49.4795642,32.5108028 50.2102064,31.8349083 50.8823165,31.1638073 L50.889633,31.1562385 C51.2203899,30.8262385 51.7845183,30.9682798 51.9192431,31.4158486 C52.5832798,33.6231651 52.6201147,35.6791055 52.0115826,37.4719037 M46.8400688,45.6351147 C46.6465596,45.8419954 46.4490138,46.0463532 46.2476835,46.2476835 C45.8969954,46.597867 45.5379817,46.9366972 45.1711468,47.263922 C44.9397936,47.4700459 44.5898624,47.2122018 44.7208028,46.9311468 C44.7581422,46.8509174 44.7952294,46.7701835 44.8320642,46.6886927 C44.9862156,46.3488532 45.1350688,46.0001835 45.2798853,45.6449541 C45.3141972,45.5611927 45.3863532,45.4986239 45.4741514,45.4761697 C45.8389679,45.383578 46.1947018,45.2813991 46.5411009,45.169633 C46.8219037,45.0793119 47.0419037,45.419656 46.8400688,45.6351147 M43.0422936,43.5940596 C42.2743119,43.7053211 41.4667202,43.7772248 40.621789,43.8069954 C38.5602982,43.8791514 36.3804817,43.7012844 34.1413761,43.2890367 C33.8683945,43.2388303 33.8159174,42.8697248 34.0634174,42.7445872 C34.5518578,42.4973394 35.0405505,42.2445413 35.5289908,41.9856881 C38.9551376,40.1696789 42.1519495,38.184633 44.9503899,36.1493807 C45.1602982,35.9967431 45.4494266,36.1768807 45.406789,36.4329587 C45.0187615,38.7654128 44.4813761,40.9611239 43.8064908,42.9542431 C43.691445,43.2938303 43.3972706,43.5425917 43.0422936,43.5940596 M42.250344,46.7015596 C40.4133945,50.3144037 38.151078,52.342844 35.9581422,52.3019725 C33.5747248,52.2595872 31.1981193,49.7775229 29.4381193,45.4928211 L29.4361009,45.4880275 C29.3243349,45.216055 29.4527523,44.9047248 29.7222018,44.7876606 C29.7408716,44.7793349 29.7595413,44.7712615 29.778211,44.7629358 C29.8937615,44.7127294 30.0234404,44.7036468 30.1450459,44.7379587 C33.4372248,45.6618578 36.6809633,46.1439908 39.7200917,46.1439908 C40.050344,46.1439908 40.3783257,46.1384404 40.7035321,46.1270872 C41.0842431,46.1134633 41.4588991,46.0920183 41.8269954,46.0627523 C42.1683486,46.0357569 42.4057569,46.3962844 42.250344,46.7015596 M31.3724541,53.5720183 C30.2802752,53.7122936 29.1719495,53.7841972 28.0527752,53.7841972 C23.0513073,53.7841972 18.2675688,52.3668119 14.1604817,49.7220183 C13.8779128,49.5398624 13.9980046,49.1013761 14.3338073,49.0859862 C14.4034404,49.0827064 14.4685321,49.0791743 14.5258028,49.0756422 C15.5695413,49.0077752 16.713945,48.8548853 17.9539679,48.6159633 C20.5916972,48.1086009 23.5238532,47.2381881 26.5940138,46.0660321 C26.8692661,45.961078 27.1765596,46.0975688 27.288578,46.3700459 C27.2893349,46.3718119 27.2898394,46.3733257 27.2905963,46.3748394 C28.4804128,49.2716743 29.9447248,51.4605734 31.588922,52.8529817 C31.8606422,53.0833257 31.7256651,53.5266055 31.3724541,53.5720183 M16.4924312,35.5431193 C18.7597936,33.6968349 21.416445,31.8545872 24.3306881,30.1104817 C24.3932569,33.837867 24.8019725,37.4163991 25.5252982,40.6487844 C24.4444725,40.187844 23.3669266,39.6802294 22.2987156,39.1254358 C20.229656,38.0501606 18.2829587,36.845711 16.4924312,35.5431193 M9.44107798,45.5304128 C8.90016055,44.5098853 9.59926606,42.1458945 13.1508028,38.5529817 L13.1525688,38.5512156 C13.5234404,38.1765596 13.487867,37.5617202 13.0738532,37.2355046 C12.9315596,37.1237385 12.7902752,37.010711 12.65,36.8976835 C12.2962844,36.6118349 11.7843807,36.6380734 11.463211,36.9597477 C11.3928211,37.0301376 11.340344,37.0831193 11.3249541,37.0990138 C9.54956422,38.9213303 8.30701835,40.6081651 7.61094037,42.1254587 C7.41364679,42.555367 6.81772936,42.601789 6.5568578,42.2072018 C3.80155963,38.0420872 2.3216055,33.1614679 2.3216055,28.0527752 C2.3216055,26.226422 2.51133028,24.4290826 2.88043578,22.683211 C2.93619266,22.4190596 3.30883028,22.402156 3.38704128,22.6605046 C3.9208945,24.4230275 4.78979358,26.2461009 5.99045872,28.0896101 C7.60665138,30.5716743 9.73802752,32.9576147 12.2637385,35.1462615 C13.1258257,35.8933028 14.0363532,36.6158716 14.9859862,37.3129587 C16.9109862,38.7255505 19.0027523,40.0291514 21.2282339,41.1854128 C22.2147018,41.6980734 23.1754358,42.1872706 24.1593807,42.6302982 C24.7071101,42.876789 25.3305275,42.8959633 25.8896101,42.6764679 C26.353578,42.4948165 26.8208257,42.3058486 27.2908486,42.1093119 C27.8019954,41.8961239 28.0792661,41.3388073 27.9437844,40.8016743 C27.9268807,40.7345642 27.9135092,40.6805734 27.9059404,40.6487844 C27.1311468,37.3881422 26.7004817,33.7175229 26.6497706,29.8728211 L26.6482569,29.873578 C26.6477523,29.8279128 26.6480046,29.7814908 26.6475,29.7353211 C26.6452294,29.5251606 26.6464908,29.3134862 26.6427064,29.1038303 C26.641445,29.0369725 26.6434633,28.9236927 26.6442202,28.8565826 C26.6447248,28.8298394 26.6442202,28.8033486 26.6442202,28.7768578 C26.6444725,28.7768578 26.6449771,28.7766055 26.6452294,28.7766055 C26.6464908,28.5359174 26.6482569,28.2954817 26.6525459,28.0540367 C26.6644037,27.3945413 26.6881193,26.7398394 26.7221789,26.0904358 C26.7216743,26.0906881 26.721422,26.0909404 26.7209174,26.0911927 C26.9598394,21.4517661 27.7464908,17.0923853 28.9981193,13.4252982 C29.113922,13.0859633 28.9330275,12.7176147 28.5936927,12.6018119 C28.2629358,12.4887844 27.9324312,12.3808028 27.6024312,12.2773624 C27.2686468,12.1726606 26.9119037,12.3527982 26.7991284,12.6840596 C25.4425459,16.6665138 24.6054358,21.3912156 24.382156,26.3909174 C24.3536468,27.0251835 24.0085092,27.6024312 23.4622936,27.9261239 C20.5011239,29.681078 17.7816514,31.5414908 15.4322936,33.416789 C14.942844,33.8075917 14.2437385,33.7927064 13.7704358,33.3822248 C11.4157798,31.3406651 9.43401376,29.1232569 7.9358945,26.8225917 C4.99188073,22.3019954 4.29227064,18.0432798 5.96649083,14.8330963 C5.97103211,14.8255275 5.97506881,14.8177064 5.9793578,14.8103899 C6.19279817,14.4561697 6.41481651,14.1067431 6.64591743,13.7621101 C8.56965596,11.215711 12.1502064,9.74004587 16.8988761,9.57327982 C17.1993578,9.56268349 17.5018578,9.55738532 17.807133,9.55738532 C20.7198624,9.55738532 23.8457798,10.0380046 27.0249312,10.955344 L27.0256881,10.9545872 C27.0953211,10.9747706 27.1649541,10.995711 27.2345872,11.0161468 C27.2883257,11.0320413 27.3420642,11.0469266 27.3958028,11.0630734 C27.3955505,11.0633257 27.3955505,11.0633257 27.3955505,11.063578 C28.1302294,11.2830734 28.8671789,11.5260321 29.6048853,11.791445 C29.6051376,11.7911927 29.6051376,11.7911927 29.6051376,11.7909404 C29.6222936,11.7969954 29.6394495,11.8038073 29.6566055,11.8098624 C29.8488532,11.8792431 30.0408486,11.9503899 30.232844,12.0227982 C30.2928899,12.0455046 30.3531881,12.0684633 30.4132339,12.0916743 C30.4710092,12.1138761 30.5287844,12.1353211 30.5868119,12.1577752 L30.586055,12.1587844 C32.1386697,12.7597477 33.6900229,13.4586009 35.2219495,14.2548394 C38.187156,15.795344 40.9013303,17.6012615 43.2633028,19.5825229 C38.7555734,20.6151606 33.5159404,22.6072706 28.2477982,25.2931881 C28.0048394,25.4173165 27.8448853,25.6615367 27.8294954,25.9340138 C27.811078,26.2604817 27.7868578,26.9169495 27.7694495,27.4386927 C27.7586009,27.7661697 28.105,27.9831422 28.3951376,27.8307569 L28.3981651,27.8289908 C33.6140826,25.0900917 38.819656,23.0429817 43.2900459,21.9611468 C44.1256422,21.7590596 44.6665596,20.9565138 44.5492431,20.1050229 C44.4669954,19.5101147 44.3744037,18.9245413 44.2719725,18.3493119 C44.1433028,17.6267431 43.7477064,16.9806193 43.1638991,16.536078 C41.0701147,14.941078 38.7626376,13.4780275 36.2924312,12.1943578 C34.6277982,11.3294954 32.9386927,10.5716055 31.246055,9.92522936 C30.8840138,9.78697248 30.7288532,9.35908257 30.9178211,9.02075688 C32.6616743,5.90114679 34.7357798,4.15401376 36.7563991,4.15401376 C36.7773394,4.15401376 36.7982798,4.15401376 36.8192202,4.15451835 C39.2026376,4.19715596 41.5792431,6.67896789 43.3392431,10.9636697 C44.2300917,13.1326376 44.920367,15.6338761 45.392156,18.3520872 C45.389633,18.3498165 45.3871101,18.3477982 45.3848394,18.3455275 C45.5861697,19.5055734 45.7483945,20.7044725 45.8687385,21.9344037 C45.8583945,21.9409633 45.8472936,21.9467661 45.8369495,21.9533257 C45.851078,21.9677064 45.8659633,21.9820872 45.880344,21.9967202 C46.0799083,24.0604817 46.1641743,26.2095183 46.1248165,28.4024541 C46.1000917,29.7895642 46.0261697,31.1575 45.9065826,32.4959174 C42.717844,35.072844 38.7752523,37.6374083 34.4416055,39.9340367 C33.0174083,40.6888991 31.5934633,41.3915367 30.1833945,42.0384174 C30.161445,42.0485092 30.1397477,42.0583486 30.1177982,42.0684404 C30.0100688,42.1176376 29.9020872,42.1675917 29.7943578,42.2162844 C29.7933486,42.2160321 29.7925917,42.2157798 29.7918349,42.2155275 C28.6234633,42.7440826 27.4661927,43.2330275 26.3280963,43.6795872 C26.3283486,43.6798394 26.3283486,43.680344 26.3286009,43.6805963 C26.2642661,43.7058257 26.2004358,43.7300459 26.1363532,43.7550229 C26.0563761,43.7863073 25.9763991,43.8170872 25.8966743,43.847867 C25.7056881,43.9210321 25.5154587,43.9931881 25.3257339,44.0640826 C25.2735092,44.0835092 25.2210321,44.103945 25.1688073,44.1231193 C24.9384633,44.2086468 24.7093807,44.2916514 24.481055,44.3733945 C24.4525459,44.3834862 24.4240367,44.3943349 24.3957798,44.4044266 C24.3952752,44.4041743 24.3950229,44.4041743 24.3947706,44.403922 C21.9558486,45.2725688 19.6324771,45.9287844 17.5152294,46.3362385 C12.3989679,47.3211927 9.98981651,46.5655734 9.44107798,45.5304128 M13.1157339,7.09575688 C17.4461009,3.99481651 22.6206422,2.3216055 28.0527752,2.3216055 C29.4865596,2.3216055 30.9019266,2.43892202 32.2887844,2.66775229 C32.6601606,2.72905963 32.7847936,3.20311927 32.4886009,3.43548165 C31.144633,4.48905963 29.8960321,6.04798165 28.7909862,8.06961009 C28.5212844,8.56284404 27.9493349,8.8040367 27.4084174,8.65165138 C23.7473853,7.62103211 20.1453899,7.13612385 16.8173853,7.25293578 C15.5897248,7.29607798 14.427156,7.42045872 13.3349771,7.62178899 C13.0281881,7.67830275 12.8621789,7.27715596 13.1157339,7.09575688 M48.4363303,25.8487385 C48.4287615,25.5538073 48.8072018,25.4279128 48.9782569,25.6680963 C49.1884174,25.9630275 49.3910092,26.2594725 49.5850229,26.5574312 C49.842867,26.9535321 50.0827982,27.3473624 50.3058257,27.7386697 C50.4448394,27.9826376 50.4115367,28.2886697 50.2223165,28.496055 C49.9218349,28.826055 49.5958716,29.167156 49.2419037,29.5208716 C49.1127294,29.6497936 48.9810321,29.7789679 48.8468119,29.9083945 C48.6802982,30.0693578 48.4010092,29.9467431 48.4100917,29.7151376 C48.4264908,29.2930505 48.4386009,28.8694495 48.4461697,28.4438303 C48.4618119,27.5719037 48.4580275,26.7062844 48.4363303,25.8487385 M45.7678211,9.39061927 C45.9295413,9.54401376 46.0894954,9.69993119 46.2476835,9.85811927 C48.7272248,12.3376606 50.6370872,15.235 51.9141972,18.3904358 C52.0431193,18.708578 51.7729128,19.0416055 51.4350917,18.9808028 C50.6961239,18.8480963 49.8645642,18.7888073 48.943945,18.8041972 C48.3058945,18.8147936 47.7513532,18.3677294 47.6393349,17.7395183 C47.1390367,14.9342661 46.415711,12.3429587 45.4867661,10.0813991 C45.4337844,9.95247706 45.3802982,9.82506881 45.326055,9.69892202 C45.2079817,9.42366972 45.5505963,9.18424312 45.7678211,9.39061927 M55.4997936,22.2182339 C54.3912156,16.9511009 51.7845183,12.1116055 47.8891055,8.21619266 C42.5906881,2.91777523 35.5461468,0 28.0527752,0 C20.559656,0 13.5148624,2.91777523 8.21644495,8.21619266 C6.92772936,9.50490826 5.78155963,10.8973165 4.78222477,12.3737385 C4.48502294,12.7693349 4.21885321,13.187133 3.98220183,13.6243578 C1.38635321,17.9378211 0,22.8888303 0,28.0527752 C0,35.5461468 2.91802752,42.5906881 8.21644495,47.8891055 C13.5148624,53.1875229 20.559656,56.1058028 28.0527752,56.1058028 C35.5461468,56.1058028 42.5906881,53.1875229 47.8891055,47.8891055 C50.3898394,45.3886239 52.3594954,42.4988532 53.7430734,39.356789 C53.9121101,39.0086239 54.0597018,38.652133 54.1866055,38.288578 C55.446055,35.0703211 56.1058028,31.6123853 56.1058028,28.0527752 C56.1058028,26.0934633 55.9044725,24.1656881 55.5151835,22.2908945 C55.5098853,22.2666743 55.5050917,22.2424541 55.4997936,22.2182339 M212.637317,30.6927752 L207.330826,30.6927752 C206.832041,30.6927752 206.520459,30.1526147 206.770482,29.7206881 L209.432179,25.126422 C209.68195,24.695 210.304862,24.6960092 210.553876,25.1279358 L213.198417,29.7224541 C213.446927,30.1541284 213.135344,30.6927752 212.637317,30.6927752 M219.618532,35.0589679 L211.24844,20.5379587 C210.645711,19.597156 209.343119,19.597156 208.739885,20.5379587 L200.370046,35.0589679 C200.268876,35.2408716 200.21867,35.4227752 200.205046,35.6334404 C200.152064,36.4533945 200.789106,37.1863073 201.610573,37.2052294 C202.183784,37.2186009 202.629587,36.9297248 202.975229,36.3133716 L204.269243,34.0634174 C204.438532,33.7689908 204.752133,33.5873394 205.091972,33.5873394 L214.872638,33.5873394 C215.212225,33.5873394 215.526078,33.7689908 215.695367,34.0634174 L216.989381,36.3133716 C217.316353,36.8971789 217.756606,37.1873165 218.288188,37.2047248 C219.100573,37.2317202 219.787569,36.5712156 219.787569,35.7583257 C219.787569,35.5413532 219.739381,35.3241284 219.618532,35.0589679" id="Fill-1"/>
        </g>
    </g>
</svg>