<svg  viewBox="0 0 200 212" fill="none" xmlns="http://www.w3.org/2000/svg">
<path d="M199.837 106.454L111.698 88.2555L78.4063 121.259L146.429 134.658C159.45 137.222 172.895 133.162 182.32 123.819L199.837 106.454Z" fill="#F03619"/>
<path d="M93.74 0.19174L111.554 88.4091L78.4062 121.557L65.3038 53.4768C62.7957 40.4447 66.9146 27.0172 76.2987 17.633L93.74 0.19174Z" fill="#F03619"/>
<path d="M143.918 183.45L84.3107 180.71L0.365425 99.5684L27.8818 71.6913L143.918 183.45Z" fill="#F03619"/>
<path d="M146.756 74.8504C134.806 74.8504 125.118 65.1605 125.118 53.2074C125.118 41.2544 134.806 31.5645 146.756 31.5645C158.707 31.5645 168.395 41.2544 168.395 53.2074C168.395 65.1605 158.707 74.8504 146.756 74.8504Z" fill="#FDB486"/>
</svg>
