<svg  viewBox="0 0 332 332" fill="none" xmlns="http://www.w3.org/2000/svg">
<path d="M155.426 219.533L19.1641 93.1204H104.133C117.385 93.1204 130.211 97.7988 140.35 106.331L229.414 181.277L191.84 218.851C181.86 228.831 165.773 229.133 155.426 219.533Z" fill="#E2B890"/>
<path d="M231.855 178.837L198.387 149.84C188.102 140.929 188.019 124.999 198.211 115.983L231.855 86.2192V178.837Z" fill="#E2B890"/>
<path d="M150.619 220.487L118.006 189.657V288.546L150.326 258.911C161.556 248.615 161.69 230.953 150.619 220.487Z" fill="#E2B890"/>
<path d="M235.02 85.4285L235.02 115.015C235.02 132.342 249.065 146.388 266.392 146.388H295.979L235.02 85.4285Z" fill="#E2B890"/>
<path fill-rule="evenodd" clip-rule="evenodd" d="M165.792 298.144C238.911 298.144 298.185 238.869 298.185 165.75C298.185 92.6317 238.911 33.3573 165.792 33.3573C92.6735 33.3573 33.3991 92.6317 33.3991 165.75C33.3991 238.869 92.6735 298.144 165.792 298.144ZM165.792 331.242C257.191 331.242 331.284 257.149 331.284 165.75C331.284 74.3521 257.191 0.259033 165.792 0.259033C74.3938 0.259033 0.300781 74.3521 0.300781 165.75C0.300781 257.149 74.3938 331.242 165.792 331.242Z" fill="#E2B890"/>
</svg>
