<svg  viewBox="0 0 276 224" fill="none" xmlns="http://www.w3.org/2000/svg">
<path d="M52.0482 49.4986L84.8647 0.427246C87.6488 4.62341 91.2147 8.5049 95.4872 11.9263C106.808 20.9915 122.161 26.0843 138.171 26.0843C154.18 26.0843 169.534 20.9915 180.854 11.9263C184.635 8.89896 188.923 4.0743 191.545 0.427246L222.997 50.4821C200.159 67.5625 170.078 77.1527 138.739 77.2673L235.353 77.2673C238.825 77.2673 242.068 78.9999 243.998 81.886L275.283 128.666L0.630859 128.666L30.4105 82.067C32.3214 79.0768 35.6252 77.2673 39.1738 77.2673L137.602 77.2673C105.667 77.1505 75.0375 67.194 52.0482 49.4986Z" fill="#F04C18"/>
<path d="M56.2979 162.945L56.2992 223.746L108.308 223.746L108.308 134.674C66.9417 134.691 57.938 150.24 56.2979 162.945Z" fill="#F04C18"/>
<path d="M222.758 163.013C221.141 150.296 212.18 134.694 170.748 134.675V223.745H222.757L222.758 163.013Z" fill="#F04C18"/>
</svg>
