<svg width="379" height="84" viewBox="0 0 379 84" fill="none" xmlns="http://www.w3.org/2000/svg">
    <path fill-rule="evenodd" clip-rule="evenodd"
        d="M141.748 0.299805C115.081 0.299805 93.3194 17.1591 93.3194 41.8907C93.3194 66.6224 114.775 83.3738 141.748 83.3738C168.72 83.3738 190.176 66.4247 190.176 41.8907C190.176 17.3568 168.414 0.299805 141.748 0.299805ZM141.855 17.3747C158.405 17.3747 170.355 28.3027 170.355 41.8907C170.355 55.8922 157.794 66.3169 141.855 66.3169C125.916 66.3169 113.05 56.0899 113.05 41.8907C113.05 27.6916 125.305 17.3747 141.855 17.3747Z"
        fill="#EE2D3F" />
    <path fill-rule="evenodd" clip-rule="evenodd"
        d="M0.757812 1.93541V81.6484H38.9613C66.7603 81.6484 83.2025 64.9868 83.2025 41.2796C83.2025 19.7113 69.7253 1.93541 37.8472 1.93541H0.757812ZM36.7151 64.879C31.414 64.879 25.5739 64.879 19.2486 67.7368V67.7548L17.1102 65.7058C21.1893 49.9609 21.0815 33.7128 17.0024 16.9614L19.2486 15.9368C24.5496 18.6868 28.7545 18.6868 33.1391 18.6868C45.1967 18.6868 63.4898 18.6868 63.4898 42.0885C63.4898 61.6078 49.9946 64.879 36.7151 64.879Z"
        fill="#EE2D3F" />
    <path fill-rule="evenodd" clip-rule="evenodd"
        d="M281.911 41.8907C281.911 17.1591 303.672 0.299805 330.339 0.299805C357.006 0.299805 378.767 17.3568 378.767 41.8907C378.767 66.4247 357.311 83.3738 330.339 83.3738C303.366 83.3738 281.911 66.6224 281.911 41.8907ZM358.946 41.8907C358.946 28.3027 346.997 17.3747 330.447 17.3747C313.897 17.3747 301.641 27.6916 301.641 41.8907C301.641 56.0899 314.508 66.3169 330.447 66.3169C346.386 66.3169 358.946 55.8922 358.946 41.8907Z"
        fill="#EE2D3F" />
    <path
        d="M201.856 1.93554L268.146 2.02541V50.0509C268.146 58.9478 268.146 83.4639 236.789 83.4639C217.184 83.4639 201.856 73.2548 201.856 55.3711V42.0885L220.455 41.819V52.711C220.455 60.2779 226.277 66.4069 235.872 66.4069C248.433 66.4069 249.457 58.1211 249.457 52.6032V31.9335C249.457 26.6169 250.406 22.3897 252.081 17.3569C252.099 17.303 252.081 17.267 252.027 17.249C251.614 17.0664 249.996 16.0089 249.601 16.2066C245.079 18.5461 240.216 19.1183 235.208 19.1183H201.856V1.93554Z"
        fill="#EE2D3F" />
</svg>